<svg width="128" height="128" viewBox="0 0 128 128" fill="none" xmlns="http://www.w3.org/2000/svg">
<g clip-path="url(#paint0_diamond_1_374_clip_path)" data-figma-skip-parse="true"><g transform="matrix(0.0915 0.094 -0.094 0.0915 48 29)"><rect x="0" y="0" width="976.944" height="799.384" fill="url(#paint0_diamond_1_374)" opacity="1" shape-rendering="crispEdges"/><rect x="0" y="0" width="976.944" height="799.384" transform="scale(1 -1)" fill="url(#paint0_diamond_1_374)" opacity="1" shape-rendering="crispEdges"/><rect x="0" y="0" width="976.944" height="799.384" transform="scale(-1 1)" fill="url(#paint0_diamond_1_374)" opacity="1" shape-rendering="crispEdges"/><rect x="0" y="0" width="976.944" height="799.384" transform="scale(-1)" fill="url(#paint0_diamond_1_374)" opacity="1" shape-rendering="crispEdges"/></g></g><rect width="128" height="128" rx="64" data-figma-gradient-fill="{&#34;type&#34;:&#34;GRADIENT_DIAMOND&#34;,&#34;stops&#34;:[{&#34;color&#34;:{&#34;r&#34;:0.091507948935031891,&#34;g&#34;:0.18248435854911804,&#34;b&#34;:0.51442307233810425,&#34;a&#34;:0.30000001192092896},&#34;position&#34;:0.0},{&#34;color&#34;:{&#34;r&#34;:0.72393298149108887,&#34;g&#34;:0.68750,&#34;b&#34;:1.0,&#34;a&#34;:1.0},&#34;position&#34;:1.0}],&#34;stopsVar&#34;:[{&#34;color&#34;:{&#34;r&#34;:0.091507948935031891,&#34;g&#34;:0.18248435854911804,&#34;b&#34;:0.51442307233810425,&#34;a&#34;:0.30000001192092896},&#34;position&#34;:0.0},{&#34;color&#34;:{&#34;r&#34;:0.72393298149108887,&#34;g&#34;:0.68750,&#34;b&#34;:1.0,&#34;a&#34;:1.0},&#34;position&#34;:1.0}],&#34;transform&#34;:{&#34;m00&#34;:183.0,&#34;m01&#34;:-188.00001525878906,&#34;m02&#34;:50.50,&#34;m10&#34;:188.00001525878906,&#34;m11&#34;:183.0,&#34;m12&#34;:-156.50001525878906},&#34;opacity&#34;:1.0,&#34;blendMode&#34;:&#34;LINEAR_DODGE&#34;,&#34;visible&#34;:true}" style="mix-blend-mode:plus-lighter"/>
<rect x="8" y="8" width="112" height="112" rx="56" fill="white"/>
<g filter="url(#filter0_i_1_374)">
<g clip-path="url(#paint1_diamond_1_374_clip_path)" data-figma-skip-parse="true"><g transform="matrix(-3.79515e-10 0.0489066 -0.0489066 -3.79512e-10 63.75 43.1951)"><rect x="0" y="0" width="1108.7" height="688.406" fill="url(#paint1_diamond_1_374)" opacity="1" shape-rendering="crispEdges"/><rect x="0" y="0" width="1108.7" height="688.406" transform="scale(1 -1)" fill="url(#paint1_diamond_1_374)" opacity="1" shape-rendering="crispEdges"/><rect x="0" y="0" width="1108.7" height="688.406" transform="scale(-1 1)" fill="url(#paint1_diamond_1_374)" opacity="1" shape-rendering="crispEdges"/><rect x="0" y="0" width="1108.7" height="688.406" transform="scale(-1)" fill="url(#paint1_diamond_1_374)" opacity="1" shape-rendering="crispEdges"/></g></g><path d="M96 63.8145C87.632 64.3283 79.7406 67.8842 73.8124 73.8124C67.8842 79.7406 64.3283 87.632 63.8145 96H63.6855C63.1727 87.6316 59.6171 79.7397 53.6887 73.8113C47.7603 67.8829 39.8684 64.3273 31.5 63.8145V63.6855C39.8684 63.1727 47.7603 59.6171 53.6887 53.6887C59.6171 47.7603 63.1727 39.8684 63.6855 31.5H63.8145C64.3283 39.868 67.8842 47.7594 73.8124 53.6876C79.7406 59.6158 87.632 63.1717 96 63.6855V63.8145Z" data-figma-gradient-fill="{&#34;type&#34;:&#34;GRADIENT_DIAMOND&#34;,&#34;stops&#34;:[{&#34;color&#34;:{&#34;r&#34;:0.26666668057441711,&#34;g&#34;:0.54117649793624878,&#34;b&#34;:1.0,&#34;a&#34;:1.0},&#34;position&#34;:0.0},{&#34;color&#34;:{&#34;r&#34;:0.11764705926179886,&#34;g&#34;:0.22745098173618317,&#34;b&#34;:0.83921569585800171,&#34;a&#34;:1.0},&#34;position&#34;:0.81168484687805176}],&#34;stopsVar&#34;:[{&#34;color&#34;:{&#34;r&#34;:0.26666668057441711,&#34;g&#34;:0.54117649793624878,&#34;b&#34;:1.0,&#34;a&#34;:1.0},&#34;position&#34;:0.0},{&#34;color&#34;:{&#34;r&#34;:0.11764705926179886,&#34;g&#34;:0.22745098173618317,&#34;b&#34;:0.83921569585800171,&#34;a&#34;:1.0},&#34;position&#34;:0.81168484687805176}],&#34;transform&#34;:{&#34;m00&#34;:-7.5902994467469398e-07,&#34;m01&#34;:-97.813186645507812,&#34;m02&#34;:112.65658569335938,&#34;m10&#34;:97.813186645507812,&#34;m11&#34;:-7.5902414664597018e-07,&#34;m12&#34;:-5.7115364074707031},&#34;opacity&#34;:1.0,&#34;blendMode&#34;:&#34;NORMAL&#34;,&#34;visible&#34;:true}"/>
</g>
<defs>
<clipPath id="paint0_diamond_1_374_clip_path"><rect width="128" height="128" rx="64" style="mix-blend-mode:plus-lighter"/></clipPath><filter id="filter0_i_1_374" x="31.5" y="31.5" width="64.5" height="66.5" filterUnits="userSpaceOnUse" color-interpolation-filters="sRGB">
<feFlood flood-opacity="0" result="BackgroundImageFix"/>
<feBlend mode="normal" in="SourceGraphic" in2="BackgroundImageFix" result="shape"/>
<feColorMatrix in="SourceAlpha" type="matrix" values="0 0 0 0 0 0 0 0 0 0 0 0 0 0 0 0 0 0 127 0" result="hardAlpha"/>
<feOffset dy="2"/>
<feGaussianBlur stdDeviation="4"/>
<feComposite in2="hardAlpha" operator="arithmetic" k2="-1" k3="1"/>
<feColorMatrix type="matrix" values="0 0 0 0 1 0 0 0 0 1 0 0 0 0 1 0 0 0 0.5 0"/>
<feBlend mode="normal" in2="shape" result="effect1_innerShadow_1_374"/>
</filter>
<clipPath id="paint1_diamond_1_374_clip_path"><path d="M96 63.8145C87.632 64.3283 79.7406 67.8842 73.8124 73.8124C67.8842 79.7406 64.3283 87.632 63.8145 96H63.6855C63.1727 87.6316 59.6171 79.7397 53.6887 73.8113C47.7603 67.8829 39.8684 64.3273 31.5 63.8145V63.6855C39.8684 63.1727 47.7603 59.6171 53.6887 53.6887C59.6171 47.7603 63.1727 39.8684 63.6855 31.5H63.8145C64.3283 39.868 67.8842 47.7594 73.8124 53.6876C79.7406 59.6158 87.632 63.1717 96 63.6855V63.8145Z"/></clipPath><linearGradient id="paint0_diamond_1_374" x1="0" y1="0" x2="500" y2="500" gradientUnits="userSpaceOnUse">
<stop stop-color="#172F83" stop-opacity="0.3"/>
<stop offset="1" stop-color="#B9AFFF"/>
</linearGradient>
<linearGradient id="paint1_diamond_1_374" x1="0" y1="0" x2="500" y2="500" gradientUnits="userSpaceOnUse">
<stop stop-color="#448AFF"/>
<stop offset="0.811685" stop-color="#1E3AD6"/>
</linearGradient>
</defs>
</svg>
