<svg width="128" height="128" viewBox="0 0 128 128" fill="none" xmlns="http://www.w3.org/2000/svg">
<g clip-path="url(#paint0_diamond_1_403_clip_path)" data-figma-skip-parse="true"><g transform="matrix(0.0915 0.094 -0.094 0.0915 48 29)"><rect x="0" y="0" width="976.944" height="799.384" fill="url(#paint0_diamond_1_403)" opacity="1" shape-rendering="crispEdges"/><rect x="0" y="0" width="976.944" height="799.384" transform="scale(1 -1)" fill="url(#paint0_diamond_1_403)" opacity="1" shape-rendering="crispEdges"/><rect x="0" y="0" width="976.944" height="799.384" transform="scale(-1 1)" fill="url(#paint0_diamond_1_403)" opacity="1" shape-rendering="crispEdges"/><rect x="0" y="0" width="976.944" height="799.384" transform="scale(-1)" fill="url(#paint0_diamond_1_403)" opacity="1" shape-rendering="crispEdges"/></g></g><rect width="128" height="128" rx="64" data-figma-gradient-fill="{&#34;type&#34;:&#34;GRADIENT_DIAMOND&#34;,&#34;stops&#34;:[{&#34;color&#34;:{&#34;r&#34;:0.091507948935031891,&#34;g&#34;:0.18248435854911804,&#34;b&#34;:0.51442307233810425,&#34;a&#34;:0.30000001192092896},&#34;position&#34;:0.0},{&#34;color&#34;:{&#34;r&#34;:0.72393298149108887,&#34;g&#34;:0.68750,&#34;b&#34;:1.0,&#34;a&#34;:1.0},&#34;position&#34;:1.0}],&#34;stopsVar&#34;:[{&#34;color&#34;:{&#34;r&#34;:0.091507948935031891,&#34;g&#34;:0.18248435854911804,&#34;b&#34;:0.51442307233810425,&#34;a&#34;:0.30000001192092896},&#34;position&#34;:0.0},{&#34;color&#34;:{&#34;r&#34;:0.72393298149108887,&#34;g&#34;:0.68750,&#34;b&#34;:1.0,&#34;a&#34;:1.0},&#34;position&#34;:1.0}],&#34;transform&#34;:{&#34;m00&#34;:183.0,&#34;m01&#34;:-188.00001525878906,&#34;m02&#34;:50.50,&#34;m10&#34;:188.00001525878906,&#34;m11&#34;:183.0,&#34;m12&#34;:-156.50001525878906},&#34;opacity&#34;:1.0,&#34;blendMode&#34;:&#34;LINEAR_DODGE&#34;,&#34;visible&#34;:true}" style="mix-blend-mode:plus-lighter"/>
<rect x="8" y="8" width="112" height="112" rx="56" fill="white"/>
<g filter="url(#filter0_i_1_403)">
<g filter="url(#filter1_i_1_403)">
<g clip-path="url(#paint1_diamond_1_403_clip_path)" data-figma-skip-parse="true"><g transform="matrix(-2.91265e-10 0.0353107 -0.0375342 -2.74008e-10 64.3913 51.8748)"><rect x="0" y="0" width="1216.84" height="788.426" fill="url(#paint1_diamond_1_403)" opacity="1" shape-rendering="crispEdges"/><rect x="0" y="0" width="1216.84" height="788.426" transform="scale(1 -1)" fill="url(#paint1_diamond_1_403)" opacity="1" shape-rendering="crispEdges"/><rect x="0" y="0" width="1216.84" height="788.426" transform="scale(-1 1)" fill="url(#paint1_diamond_1_403)" opacity="1" shape-rendering="crispEdges"/><rect x="0" y="0" width="1216.84" height="788.426" transform="scale(-1)" fill="url(#paint1_diamond_1_403)" opacity="1" shape-rendering="crispEdges"/></g></g><path d="M89.1421 73.5788V53.0524L69.8055 43.4309M58.9771 43.4309L39.6405 53.0524V73.5788M44.2813 79.9941L64.3913 90L76.7667 83.8421L84.5013 79.9941" data-figma-gradient-fill="{&#34;type&#34;:&#34;GRADIENT_DIAMOND&#34;,&#34;stops&#34;:[{&#34;color&#34;:{&#34;r&#34;:0.26666668057441711,&#34;g&#34;:0.54117649793624878,&#34;b&#34;:1.0,&#34;a&#34;:1.0},&#34;position&#34;:0.0},{&#34;color&#34;:{&#34;r&#34;:0.11764705926179886,&#34;g&#34;:0.22745098173618317,&#34;b&#34;:0.83921569585800171,&#34;a&#34;:1.0},&#34;position&#34;:0.81168484687805176}],&#34;stopsVar&#34;:[{&#34;color&#34;:{&#34;r&#34;:0.26666668057441711,&#34;g&#34;:0.54117649793624878,&#34;b&#34;:1.0,&#34;a&#34;:1.0},&#34;position&#34;:0.0},{&#34;color&#34;:{&#34;r&#34;:0.11764705926179886,&#34;g&#34;:0.22745098173618317,&#34;b&#34;:0.83921569585800171,&#34;a&#34;:1.0},&#34;position&#34;:0.81168484687805176}],&#34;transform&#34;:{&#34;m00&#34;:-5.8253004908692674e-07,&#34;m01&#34;:-75.068336486816406,&#34;m02&#34;:101.92546081542969,&#34;m10&#34;:70.621307373046875,&#34;m11&#34;:-5.4801688520456082e-07,&#34;m12&#34;:16.564107894897461},&#34;opacity&#34;:1.0,&#34;blendMode&#34;:&#34;NORMAL&#34;,&#34;visible&#34;:true}"/>
</g>
<g clip-path="url(#paint2_diamond_1_403_clip_path)" data-figma-skip-parse="true"><g transform="matrix(-2.91265e-10 0.0353107 -0.0375342 -2.74008e-10 64.3913 51.8748)"><rect x="0" y="0" width="1216.84" height="788.426" fill="url(#paint2_diamond_1_403)" opacity="1" shape-rendering="crispEdges"/><rect x="0" y="0" width="1216.84" height="788.426" transform="scale(1 -1)" fill="url(#paint2_diamond_1_403)" opacity="1" shape-rendering="crispEdges"/><rect x="0" y="0" width="1216.84" height="788.426" transform="scale(-1 1)" fill="url(#paint2_diamond_1_403)" opacity="1" shape-rendering="crispEdges"/><rect x="0" y="0" width="1216.84" height="788.426" transform="scale(-1)" fill="url(#paint2_diamond_1_403)" opacity="1" shape-rendering="crispEdges"/></g></g><path d="M86.721 73.5788C86.721 74.916 87.805 75.9999 89.1421 75.9999C90.4792 75.9999 91.5631 74.916 91.5631 73.5788H86.721ZM89.1421 53.0524H91.5631C91.5631 52.1336 91.0431 51.2941 90.2206 50.8848L89.1421 53.0524ZM70.8841 41.2634C69.687 40.6677 68.2336 41.1553 67.638 42.3524C67.0423 43.5495 67.5299 45.0028 68.727 45.5985L70.8841 41.2634ZM60.0556 45.5985C61.2527 45.0028 61.7403 43.5495 61.1446 42.3524C60.549 41.1553 59.0956 40.6677 57.8985 41.2634L60.0556 45.5985ZM39.6405 53.0524L38.562 50.8848C37.7395 51.2941 37.2195 52.1336 37.2195 53.0524H39.6405ZM37.2195 73.5788C37.2195 74.916 38.3034 75.9999 39.6405 75.9999C40.9776 75.9999 42.0616 74.916 42.0616 73.5788H37.2195ZM45.3598 77.8265C44.1627 77.2309 42.7093 77.7184 42.1137 78.9156C41.5181 80.1127 42.0057 81.566 43.2028 82.1616L45.3598 77.8265ZM64.3913 90L63.3128 92.1676C63.9921 92.5056 64.7906 92.5056 65.4699 92.1676L64.3913 90ZM76.7667 83.8421L75.6883 81.6745L75.6881 81.6745L76.7667 83.8421ZM85.5797 82.1617C86.7769 81.5661 87.2645 80.1128 86.6689 78.9157C86.0733 77.7185 84.6201 77.2309 83.4229 77.8264L85.5797 82.1617ZM89.1421 73.5788H91.5631V53.0524H89.1421H86.721V73.5788H89.1421ZM89.1421 53.0524L90.2206 50.8848L70.8841 41.2634L69.8055 43.4309L68.727 45.5985L88.0636 55.2199L89.1421 53.0524ZM58.9771 43.4309L57.8985 41.2634L38.562 50.8848L39.6405 53.0524L40.719 55.2199L60.0556 45.5985L58.9771 43.4309ZM39.6405 53.0524H37.2195V73.5788H39.6405H42.0616V53.0524H39.6405ZM44.2813 79.9941L43.2028 82.1616L63.3128 92.1676L64.3913 90L65.4698 87.8325L45.3598 77.8265L44.2813 79.9941ZM64.3913 90L65.4699 92.1676L77.8452 86.0096L76.7667 83.8421L75.6881 81.6745L63.3127 87.8325L64.3913 90ZM76.7667 83.8421L77.8451 86.0097L85.5797 82.1617L84.5013 79.9941L83.4229 77.8264L75.6883 81.6745L76.7667 83.8421Z" data-figma-gradient-fill="{&#34;type&#34;:&#34;GRADIENT_DIAMOND&#34;,&#34;stops&#34;:[{&#34;color&#34;:{&#34;r&#34;:0.26666668057441711,&#34;g&#34;:0.54117649793624878,&#34;b&#34;:1.0,&#34;a&#34;:1.0},&#34;position&#34;:0.0},{&#34;color&#34;:{&#34;r&#34;:0.11764705926179886,&#34;g&#34;:0.22745098173618317,&#34;b&#34;:0.83921569585800171,&#34;a&#34;:1.0},&#34;position&#34;:0.81168484687805176}],&#34;stopsVar&#34;:[{&#34;color&#34;:{&#34;r&#34;:0.26666668057441711,&#34;g&#34;:0.54117649793624878,&#34;b&#34;:1.0,&#34;a&#34;:1.0},&#34;position&#34;:0.0},{&#34;color&#34;:{&#34;r&#34;:0.11764705926179886,&#34;g&#34;:0.22745098173618317,&#34;b&#34;:0.83921569585800171,&#34;a&#34;:1.0},&#34;position&#34;:0.81168484687805176}],&#34;transform&#34;:{&#34;m00&#34;:-5.8253004908692674e-07,&#34;m01&#34;:-75.068336486816406,&#34;m02&#34;:101.92546081542969,&#34;m10&#34;:70.621307373046875,&#34;m11&#34;:-5.4801688520456082e-07,&#34;m12&#34;:16.564107894897461},&#34;opacity&#34;:1.0,&#34;blendMode&#34;:&#34;NORMAL&#34;,&#34;visible&#34;:true}"/>
<g clip-path="url(#paint3_diamond_1_403_clip_path)" data-figma-skip-parse="true"><g transform="matrix(-1.09224e-10 0.0145264 -0.0140753 -1.12724e-10 64.3917 59.2633)"><rect x="0" y="0" width="1413.04" height="1003.43" fill="url(#paint3_diamond_1_403)" opacity="1" shape-rendering="crispEdges"/><rect x="0" y="0" width="1413.04" height="1003.43" transform="scale(1 -1)" fill="url(#paint3_diamond_1_403)" opacity="1" shape-rendering="crispEdges"/><rect x="0" y="0" width="1413.04" height="1003.43" transform="scale(-1 1)" fill="url(#paint3_diamond_1_403)" opacity="1" shape-rendering="crispEdges"/><rect x="0" y="0" width="1413.04" height="1003.43" transform="scale(-1)" fill="url(#paint3_diamond_1_403)" opacity="1" shape-rendering="crispEdges"/></g></g><path d="M59.7509 58.1844L55.1101 60.5791V70.1582L59.7509 72.5529L64.3917 74.9477L69.0324 72.5529L73.6732 70.1582V60.5791L69.0324 58.1844L64.3917 55.7896L59.7509 58.1844Z" data-figma-gradient-fill="{&#34;type&#34;:&#34;GRADIENT_DIAMOND&#34;,&#34;stops&#34;:[{&#34;color&#34;:{&#34;r&#34;:0.26666668057441711,&#34;g&#34;:0.54117649793624878,&#34;b&#34;:1.0,&#34;a&#34;:1.0},&#34;position&#34;:0.0},{&#34;color&#34;:{&#34;r&#34;:0.11764705926179886,&#34;g&#34;:0.22745098173618317,&#34;b&#34;:0.83921569585800171,&#34;a&#34;:1.0},&#34;position&#34;:0.81168484687805176}],&#34;stopsVar&#34;:[{&#34;color&#34;:{&#34;r&#34;:0.26666668057441711,&#34;g&#34;:0.54117649793624878,&#34;b&#34;:1.0,&#34;a&#34;:1.0},&#34;position&#34;:0.0},{&#34;color&#34;:{&#34;r&#34;:0.11764705926179886,&#34;g&#34;:0.22745098173618317,&#34;b&#34;:0.83921569585800171,&#34;a&#34;:1.0},&#34;position&#34;:0.81168484687805176}],&#34;transform&#34;:{&#34;m00&#34;:-2.1844873288046074e-07,&#34;m01&#34;:-28.150623321533203,&#34;m02&#34;:78.466964721679688,&#34;m10&#34;:29.052873611450195,&#34;m11&#34;:-2.2544845990069007e-07,&#34;m12&#34;:44.736888885498047},&#34;opacity&#34;:1.0,&#34;blendMode&#34;:&#34;NORMAL&#34;,&#34;visible&#34;:true}"/>
<g clip-path="url(#paint4_diamond_1_403_clip_path)" data-figma-skip-parse="true"><g transform="matrix(-1.09224e-10 0.0145264 -0.0140753 -1.12724e-10 64.3917 59.2633)"><rect x="0" y="0" width="1413.04" height="1003.43" fill="url(#paint4_diamond_1_403)" opacity="1" shape-rendering="crispEdges"/><rect x="0" y="0" width="1413.04" height="1003.43" transform="scale(1 -1)" fill="url(#paint4_diamond_1_403)" opacity="1" shape-rendering="crispEdges"/><rect x="0" y="0" width="1413.04" height="1003.43" transform="scale(-1 1)" fill="url(#paint4_diamond_1_403)" opacity="1" shape-rendering="crispEdges"/><rect x="0" y="0" width="1413.04" height="1003.43" transform="scale(-1)" fill="url(#paint4_diamond_1_403)" opacity="1" shape-rendering="crispEdges"/></g></g><path d="M55.1101 60.5791L53.9999 58.4276C53.1948 58.8431 52.6891 59.6732 52.6891 60.5791H55.1101ZM55.1101 70.1582H52.6891C52.6891 71.0641 53.1948 71.8942 53.9999 72.3096L55.1101 70.1582ZM64.3917 74.9477L63.2814 77.0992C63.9779 77.4586 64.8054 77.4586 65.5019 77.0992L64.3917 74.9477ZM73.6732 70.1582L74.7834 72.3096C75.5885 71.8942 76.0943 71.0641 76.0943 70.1582H73.6732ZM73.6732 60.5791H76.0943C76.0943 59.6732 75.5885 58.8431 74.7834 58.4276L73.6732 60.5791ZM64.3917 55.7896L65.5019 53.6381C64.8054 53.2787 63.9779 53.2787 63.2814 53.6381L64.3917 55.7896ZM59.7509 58.1844L58.6407 56.0329L53.9999 58.4276L55.1101 60.5791L56.2203 62.7306L60.8611 60.3359L59.7509 58.1844ZM55.1101 60.5791H52.6891V70.1582H55.1101H57.5312V60.5791H55.1101ZM55.1101 70.1582L53.9999 72.3096L58.6407 74.7044L59.7509 72.5529L60.8611 70.4014L56.2203 68.0067L55.1101 70.1582ZM59.7509 72.5529L58.6407 74.7044L63.2814 77.0992L64.3917 74.9477L65.5019 72.7962L60.8611 70.4014L59.7509 72.5529ZM64.3917 74.9477L65.5019 77.0992L70.1427 74.7044L69.0324 72.5529L67.9222 70.4014L63.2814 72.7962L64.3917 74.9477ZM69.0324 72.5529L70.1427 74.7044L74.7834 72.3096L73.6732 70.1582L72.563 68.0067L67.9222 70.4014L69.0324 72.5529ZM73.6732 70.1582H76.0943V60.5791H73.6732H71.2521V70.1582H73.6732ZM73.6732 60.5791L74.7834 58.4276L70.1427 56.0329L69.0324 58.1844L67.9222 60.3359L72.563 62.7306L73.6732 60.5791ZM69.0324 58.1844L70.1427 56.0329L65.5019 53.6381L64.3917 55.7896L63.2814 57.9411L67.9222 60.3359L69.0324 58.1844ZM64.3917 55.7896L63.2814 53.6381L58.6407 56.0329L59.7509 58.1844L60.8611 60.3359L65.5019 57.9411L64.3917 55.7896Z" data-figma-gradient-fill="{&#34;type&#34;:&#34;GRADIENT_DIAMOND&#34;,&#34;stops&#34;:[{&#34;color&#34;:{&#34;r&#34;:0.26666668057441711,&#34;g&#34;:0.54117649793624878,&#34;b&#34;:1.0,&#34;a&#34;:1.0},&#34;position&#34;:0.0},{&#34;color&#34;:{&#34;r&#34;:0.11764705926179886,&#34;g&#34;:0.22745098173618317,&#34;b&#34;:0.83921569585800171,&#34;a&#34;:1.0},&#34;position&#34;:0.81168484687805176}],&#34;stopsVar&#34;:[{&#34;color&#34;:{&#34;r&#34;:0.26666668057441711,&#34;g&#34;:0.54117649793624878,&#34;b&#34;:1.0,&#34;a&#34;:1.0},&#34;position&#34;:0.0},{&#34;color&#34;:{&#34;r&#34;:0.11764705926179886,&#34;g&#34;:0.22745098173618317,&#34;b&#34;:0.83921569585800171,&#34;a&#34;:1.0},&#34;position&#34;:0.81168484687805176}],&#34;transform&#34;:{&#34;m00&#34;:-2.1844873288046074e-07,&#34;m01&#34;:-28.150623321533203,&#34;m02&#34;:78.466964721679688,&#34;m10&#34;:29.052873611450195,&#34;m11&#34;:-2.2544845990069007e-07,&#34;m12&#34;:44.736888885498047},&#34;opacity&#34;:1.0,&#34;blendMode&#34;:&#34;NORMAL&#34;,&#34;visible&#34;:true}"/>
<g clip-path="url(#paint5_diamond_1_403_clip_path)" data-figma-skip-parse="true"><g transform="matrix(-2.36653e-10 0.0217897 -0.0304965 -1.69086e-10 64.3915 51.4212)"><rect x="0" y="0" width="1301.93" height="818.196" fill="url(#paint5_diamond_1_403)" opacity="1" shape-rendering="crispEdges"/><rect x="0" y="0" width="1301.93" height="818.196" transform="scale(1 -1)" fill="url(#paint5_diamond_1_403)" opacity="1" shape-rendering="crispEdges"/><rect x="0" y="0" width="1301.93" height="818.196" transform="scale(-1 1)" fill="url(#paint5_diamond_1_403)" opacity="1" shape-rendering="crispEdges"/><rect x="0" y="0" width="1301.93" height="818.196" transform="scale(-1)" fill="url(#paint5_diamond_1_403)" opacity="1" shape-rendering="crispEdges"/></g></g><path d="M64.3915 55.7897V46.2106ZM73.6731 69.474L84.5015 74.9477ZM55.11 69.474L44.2815 74.9477Z" data-figma-gradient-fill="{&#34;type&#34;:&#34;GRADIENT_DIAMOND&#34;,&#34;stops&#34;:[{&#34;color&#34;:{&#34;r&#34;:0.26666668057441711,&#34;g&#34;:0.54117649793624878,&#34;b&#34;:1.0,&#34;a&#34;:1.0},&#34;position&#34;:0.0},{&#34;color&#34;:{&#34;r&#34;:0.11764705926179886,&#34;g&#34;:0.22745098173618317,&#34;b&#34;:0.83921569585800171,&#34;a&#34;:1.0},&#34;position&#34;:0.81168484687805176}],&#34;stopsVar&#34;:[{&#34;color&#34;:{&#34;r&#34;:0.26666668057441711,&#34;g&#34;:0.54117649793624878,&#34;b&#34;:1.0,&#34;a&#34;:1.0},&#34;position&#34;:0.0},{&#34;color&#34;:{&#34;r&#34;:0.11764705926179886,&#34;g&#34;:0.22745098173618317,&#34;b&#34;:0.83921569585800171,&#34;a&#34;:1.0},&#34;position&#34;:0.81168484687805176}],&#34;transform&#34;:{&#34;m00&#34;:-4.7330559027614072e-07,&#34;m01&#34;:-60.993019104003906,&#34;m02&#34;:94.888023376464844,&#34;m10&#34;:43.579307556152344,&#34;m11&#34;:-3.3817269695646246e-07,&#34;m12&#34;:29.631547927856445},&#34;opacity&#34;:1.0,&#34;blendMode&#34;:&#34;NORMAL&#34;,&#34;visible&#34;:true}"/>
<g clip-path="url(#paint6_diamond_1_403_clip_path)" data-figma-skip-parse="true"><g transform="matrix(-2.36653e-10 0.0217897 -0.0304965 -1.69086e-10 64.3915 51.4212)"><rect x="0" y="0" width="1301.93" height="818.196" fill="url(#paint6_diamond_1_403)" opacity="1" shape-rendering="crispEdges"/><rect x="0" y="0" width="1301.93" height="818.196" transform="scale(1 -1)" fill="url(#paint6_diamond_1_403)" opacity="1" shape-rendering="crispEdges"/><rect x="0" y="0" width="1301.93" height="818.196" transform="scale(-1 1)" fill="url(#paint6_diamond_1_403)" opacity="1" shape-rendering="crispEdges"/><rect x="0" y="0" width="1301.93" height="818.196" transform="scale(-1)" fill="url(#paint6_diamond_1_403)" opacity="1" shape-rendering="crispEdges"/></g></g><path d="M61.9705 55.7897C61.9705 57.1268 63.0544 58.2107 64.3915 58.2107C65.7286 58.2107 66.8126 57.1268 66.8126 55.7897H61.9705ZM66.8126 46.2106C66.8126 44.8735 65.7286 43.7896 64.3915 43.7896C63.0544 43.7896 61.9705 44.8735 61.9705 46.2106H66.8126ZM74.7653 67.3133C73.572 66.7101 72.1156 67.1885 71.5124 68.3818C70.9092 69.5751 71.3875 71.0315 72.5808 71.6347L74.7653 67.3133ZM83.4093 77.1084C84.6026 77.7116 86.059 77.2332 86.6622 76.0399C87.2654 74.8466 86.7871 73.3902 85.5937 72.787L83.4093 77.1084ZM56.2022 71.6347C57.3955 71.0315 57.8739 69.5751 57.2707 68.3818C56.6674 67.1885 55.2111 66.7101 54.0178 67.3133L56.2022 71.6347ZM43.1893 72.787C41.996 73.3902 41.5176 74.8466 42.1208 76.0399C42.724 77.2332 44.1804 77.7116 45.3737 77.1084L43.1893 72.787ZM64.3915 55.7897H66.8126V46.2106H64.3915H61.9705V55.7897H64.3915ZM73.6731 69.474L72.5808 71.6347L83.4093 77.1084L84.5015 74.9477L85.5937 72.787L74.7653 67.3133L73.6731 69.474ZM55.11 69.474L54.0178 67.3133L43.1893 72.787L44.2815 74.9477L45.3737 77.1084L56.2022 71.6347L55.11 69.474Z" data-figma-gradient-fill="{&#34;type&#34;:&#34;GRADIENT_DIAMOND&#34;,&#34;stops&#34;:[{&#34;color&#34;:{&#34;r&#34;:0.26666668057441711,&#34;g&#34;:0.54117649793624878,&#34;b&#34;:1.0,&#34;a&#34;:1.0},&#34;position&#34;:0.0},{&#34;color&#34;:{&#34;r&#34;:0.11764705926179886,&#34;g&#34;:0.22745098173618317,&#34;b&#34;:0.83921569585800171,&#34;a&#34;:1.0},&#34;position&#34;:0.81168484687805176}],&#34;stopsVar&#34;:[{&#34;color&#34;:{&#34;r&#34;:0.26666668057441711,&#34;g&#34;:0.54117649793624878,&#34;b&#34;:1.0,&#34;a&#34;:1.0},&#34;position&#34;:0.0},{&#34;color&#34;:{&#34;r&#34;:0.11764705926179886,&#34;g&#34;:0.22745098173618317,&#34;b&#34;:0.83921569585800171,&#34;a&#34;:1.0},&#34;position&#34;:0.81168484687805176}],&#34;transform&#34;:{&#34;m00&#34;:-4.7330559027614072e-07,&#34;m01&#34;:-60.993019104003906,&#34;m02&#34;:94.888023376464844,&#34;m10&#34;:43.579307556152344,&#34;m11&#34;:-3.3817269695646246e-07,&#34;m12&#34;:29.631547927856445},&#34;opacity&#34;:1.0,&#34;blendMode&#34;:&#34;NORMAL&#34;,&#34;visible&#34;:true}"/>
<g clip-path="url(#paint7_diamond_1_403_clip_path)" data-figma-skip-parse="true"><g transform="matrix(0 0.00622562 -0.00703766 0 64.3919 39.4887)"><rect x="0" y="0" width="1857.48" height="1347.45" fill="url(#paint7_diamond_1_403)" opacity="1" shape-rendering="crispEdges"/><rect x="0" y="0" width="1857.48" height="1347.45" transform="scale(1 -1)" fill="url(#paint7_diamond_1_403)" opacity="1" shape-rendering="crispEdges"/><rect x="0" y="0" width="1857.48" height="1347.45" transform="scale(-1 1)" fill="url(#paint7_diamond_1_403)" opacity="1" shape-rendering="crispEdges"/><rect x="0" y="0" width="1857.48" height="1347.45" transform="scale(-1)" fill="url(#paint7_diamond_1_403)" opacity="1" shape-rendering="crispEdges"/></g></g><path d="M64.3919 46.2106C66.9549 46.2106 69.0326 44.3726 69.0326 42.1053C69.0326 39.838 66.9549 38 64.3919 38C61.8288 38 59.7511 39.838 59.7511 42.1053C59.7511 44.3726 61.8288 46.2106 64.3919 46.2106Z" data-figma-gradient-fill="{&#34;type&#34;:&#34;GRADIENT_DIAMOND&#34;,&#34;stops&#34;:[{&#34;color&#34;:{&#34;r&#34;:0.26666668057441711,&#34;g&#34;:0.54117649793624878,&#34;b&#34;:1.0,&#34;a&#34;:1.0},&#34;position&#34;:0.0},{&#34;color&#34;:{&#34;r&#34;:0.11764705926179886,&#34;g&#34;:0.22745098173618317,&#34;b&#34;:0.83921569585800171,&#34;a&#34;:1.0},&#34;position&#34;:0.81168484687805176}],&#34;stopsVar&#34;:[{&#34;color&#34;:{&#34;r&#34;:0.26666668057441711,&#34;g&#34;:0.54117649793624878,&#34;b&#34;:1.0,&#34;a&#34;:1.0},&#34;position&#34;:0.0},{&#34;color&#34;:{&#34;r&#34;:0.11764705926179886,&#34;g&#34;:0.22745098173618317,&#34;b&#34;:0.83921569585800171,&#34;a&#34;:1.0},&#34;position&#34;:0.81168484687805176}],&#34;transform&#34;:{&#34;m00&#34;:-1.0922436644023037e-07,&#34;m01&#34;:-14.075311660766602,&#34;m02&#34;:71.429527282714844,&#34;m10&#34;:12.451230049133301,&#34;m11&#34;:-9.6620766498745070e-08,&#34;m12&#34;:33.263118743896484},&#34;opacity&#34;:1.0,&#34;blendMode&#34;:&#34;NORMAL&#34;,&#34;visible&#34;:true}"/>
<g clip-path="url(#paint8_diamond_1_403_clip_path)" data-figma-skip-parse="true"><g transform="matrix(0 0.00622562 -0.00703766 0 64.3919 39.4887)"><rect x="0" y="0" width="1857.48" height="1347.45" fill="url(#paint8_diamond_1_403)" opacity="1" shape-rendering="crispEdges"/><rect x="0" y="0" width="1857.48" height="1347.45" transform="scale(1 -1)" fill="url(#paint8_diamond_1_403)" opacity="1" shape-rendering="crispEdges"/><rect x="0" y="0" width="1857.48" height="1347.45" transform="scale(-1 1)" fill="url(#paint8_diamond_1_403)" opacity="1" shape-rendering="crispEdges"/><rect x="0" y="0" width="1857.48" height="1347.45" transform="scale(-1)" fill="url(#paint8_diamond_1_403)" opacity="1" shape-rendering="crispEdges"/></g></g><path d="M69.0326 42.1053H66.6116C66.6116 42.765 65.9053 43.7895 64.3919 43.7895V46.2106V48.6316C68.0045 48.6316 71.4537 45.9801 71.4537 42.1053H69.0326ZM64.3919 46.2106V43.7895C62.8784 43.7895 62.1722 42.765 62.1722 42.1053H59.7511H57.33C57.33 45.9801 60.7792 48.6316 64.3919 48.6316V46.2106ZM59.7511 42.1053H62.1722C62.1722 41.4456 62.8784 40.4211 64.3919 40.4211V38V35.5789C60.7792 35.5789 57.33 38.2304 57.33 42.1053H59.7511ZM64.3919 38V40.4211C65.9053 40.4211 66.6116 41.4456 66.6116 42.1053H69.0326H71.4537C71.4537 38.2304 68.0045 35.5789 64.3919 35.5789V38Z" data-figma-gradient-fill="{&#34;type&#34;:&#34;GRADIENT_DIAMOND&#34;,&#34;stops&#34;:[{&#34;color&#34;:{&#34;r&#34;:0.26666668057441711,&#34;g&#34;:0.54117649793624878,&#34;b&#34;:1.0,&#34;a&#34;:1.0},&#34;position&#34;:0.0},{&#34;color&#34;:{&#34;r&#34;:0.11764705926179886,&#34;g&#34;:0.22745098173618317,&#34;b&#34;:0.83921569585800171,&#34;a&#34;:1.0},&#34;position&#34;:0.81168484687805176}],&#34;stopsVar&#34;:[{&#34;color&#34;:{&#34;r&#34;:0.26666668057441711,&#34;g&#34;:0.54117649793624878,&#34;b&#34;:1.0,&#34;a&#34;:1.0},&#34;position&#34;:0.0},{&#34;color&#34;:{&#34;r&#34;:0.11764705926179886,&#34;g&#34;:0.22745098173618317,&#34;b&#34;:0.83921569585800171,&#34;a&#34;:1.0},&#34;position&#34;:0.81168484687805176}],&#34;transform&#34;:{&#34;m00&#34;:-1.0922436644023037e-07,&#34;m01&#34;:-14.075311660766602,&#34;m02&#34;:71.429527282714844,&#34;m10&#34;:12.451230049133301,&#34;m11&#34;:-9.6620766498745070e-08,&#34;m12&#34;:33.263118743896484},&#34;opacity&#34;:1.0,&#34;blendMode&#34;:&#34;NORMAL&#34;,&#34;visible&#34;:true}"/>
<g clip-path="url(#paint9_diamond_1_403_clip_path)" data-figma-skip-parse="true"><g transform="matrix(0 0.00622562 -0.00703766 0 39.6408 75.0679)"><rect x="0" y="0" width="1857.48" height="1347.45" fill="url(#paint9_diamond_1_403)" opacity="1" shape-rendering="crispEdges"/><rect x="0" y="0" width="1857.48" height="1347.45" transform="scale(1 -1)" fill="url(#paint9_diamond_1_403)" opacity="1" shape-rendering="crispEdges"/><rect x="0" y="0" width="1857.48" height="1347.45" transform="scale(-1 1)" fill="url(#paint9_diamond_1_403)" opacity="1" shape-rendering="crispEdges"/><rect x="0" y="0" width="1857.48" height="1347.45" transform="scale(-1)" fill="url(#paint9_diamond_1_403)" opacity="1" shape-rendering="crispEdges"/></g></g><path d="M39.6408 81.7898C42.2038 81.7898 44.2815 79.9518 44.2815 77.6845C44.2815 75.4172 42.2038 73.5792 39.6408 73.5792C37.0777 73.5792 35 75.4172 35 77.6845C35 79.9518 37.0777 81.7898 39.6408 81.7898Z" data-figma-gradient-fill="{&#34;type&#34;:&#34;GRADIENT_DIAMOND&#34;,&#34;stops&#34;:[{&#34;color&#34;:{&#34;r&#34;:0.26666668057441711,&#34;g&#34;:0.54117649793624878,&#34;b&#34;:1.0,&#34;a&#34;:1.0},&#34;position&#34;:0.0},{&#34;color&#34;:{&#34;r&#34;:0.11764705926179886,&#34;g&#34;:0.22745098173618317,&#34;b&#34;:0.83921569585800171,&#34;a&#34;:1.0},&#34;position&#34;:0.81168484687805176}],&#34;stopsVar&#34;:[{&#34;color&#34;:{&#34;r&#34;:0.26666668057441711,&#34;g&#34;:0.54117649793624878,&#34;b&#34;:1.0,&#34;a&#34;:1.0},&#34;position&#34;:0.0},{&#34;color&#34;:{&#34;r&#34;:0.11764705926179886,&#34;g&#34;:0.22745098173618317,&#34;b&#34;:0.83921569585800171,&#34;a&#34;:1.0},&#34;position&#34;:0.81168484687805176}],&#34;transform&#34;:{&#34;m00&#34;:-1.0922436644023037e-07,&#34;m01&#34;:-14.075311660766602,&#34;m02&#34;:46.678428649902344,&#34;m10&#34;:12.451230049133301,&#34;m11&#34;:-9.6620766498745070e-08,&#34;m12&#34;:68.842285156250},&#34;opacity&#34;:1.0,&#34;blendMode&#34;:&#34;NORMAL&#34;,&#34;visible&#34;:true}"/>
<g clip-path="url(#paint10_diamond_1_403_clip_path)" data-figma-skip-parse="true"><g transform="matrix(0 0.00622562 -0.00703766 0 39.6408 75.0679)"><rect x="0" y="0" width="1857.48" height="1347.45" fill="url(#paint10_diamond_1_403)" opacity="1" shape-rendering="crispEdges"/><rect x="0" y="0" width="1857.48" height="1347.45" transform="scale(1 -1)" fill="url(#paint10_diamond_1_403)" opacity="1" shape-rendering="crispEdges"/><rect x="0" y="0" width="1857.48" height="1347.45" transform="scale(-1 1)" fill="url(#paint10_diamond_1_403)" opacity="1" shape-rendering="crispEdges"/><rect x="0" y="0" width="1857.48" height="1347.45" transform="scale(-1)" fill="url(#paint10_diamond_1_403)" opacity="1" shape-rendering="crispEdges"/></g></g><path d="M44.2815 77.6845H41.8605C41.8605 78.3442 41.1542 79.3687 39.6408 79.3687V81.7898V84.2108C43.2534 84.2108 46.7026 81.5593 46.7026 77.6845H44.2815ZM39.6408 81.7898V79.3687C38.1273 79.3687 37.4211 78.3442 37.4211 77.6845H35H32.5789C32.5789 81.5593 36.0281 84.2108 39.6408 84.2108V81.7898ZM35 77.6845H37.4211C37.4211 77.0247 38.1273 76.0002 39.6408 76.0002V73.5792V71.1581C36.0281 71.1581 32.5789 73.8096 32.5789 77.6845H35ZM39.6408 73.5792V76.0002C41.1542 76.0002 41.8605 77.0247 41.8605 77.6845H44.2815H46.7026C46.7026 73.8096 43.2534 71.1581 39.6408 71.1581V73.5792Z" data-figma-gradient-fill="{&#34;type&#34;:&#34;GRADIENT_DIAMOND&#34;,&#34;stops&#34;:[{&#34;color&#34;:{&#34;r&#34;:0.26666668057441711,&#34;g&#34;:0.54117649793624878,&#34;b&#34;:1.0,&#34;a&#34;:1.0},&#34;position&#34;:0.0},{&#34;color&#34;:{&#34;r&#34;:0.11764705926179886,&#34;g&#34;:0.22745098173618317,&#34;b&#34;:0.83921569585800171,&#34;a&#34;:1.0},&#34;position&#34;:0.81168484687805176}],&#34;stopsVar&#34;:[{&#34;color&#34;:{&#34;r&#34;:0.26666668057441711,&#34;g&#34;:0.54117649793624878,&#34;b&#34;:1.0,&#34;a&#34;:1.0},&#34;position&#34;:0.0},{&#34;color&#34;:{&#34;r&#34;:0.11764705926179886,&#34;g&#34;:0.22745098173618317,&#34;b&#34;:0.83921569585800171,&#34;a&#34;:1.0},&#34;position&#34;:0.81168484687805176}],&#34;transform&#34;:{&#34;m00&#34;:-1.0922436644023037e-07,&#34;m01&#34;:-14.075311660766602,&#34;m02&#34;:46.678428649902344,&#34;m10&#34;:12.451230049133301,&#34;m11&#34;:-9.6620766498745070e-08,&#34;m12&#34;:68.842285156250},&#34;opacity&#34;:1.0,&#34;blendMode&#34;:&#34;NORMAL&#34;,&#34;visible&#34;:true}"/>
<g clip-path="url(#paint11_diamond_1_403_clip_path)" data-figma-skip-parse="true"><g transform="matrix(0 0.00622562 -0.00703766 0 89.1424 75.0679)"><rect x="0" y="0" width="1857.48" height="1347.45" fill="url(#paint11_diamond_1_403)" opacity="1" shape-rendering="crispEdges"/><rect x="0" y="0" width="1857.48" height="1347.45" transform="scale(1 -1)" fill="url(#paint11_diamond_1_403)" opacity="1" shape-rendering="crispEdges"/><rect x="0" y="0" width="1857.48" height="1347.45" transform="scale(-1 1)" fill="url(#paint11_diamond_1_403)" opacity="1" shape-rendering="crispEdges"/><rect x="0" y="0" width="1857.48" height="1347.45" transform="scale(-1)" fill="url(#paint11_diamond_1_403)" opacity="1" shape-rendering="crispEdges"/></g></g><path d="M89.1424 81.7898C91.7054 81.7898 93.7831 79.9518 93.7831 77.6845C93.7831 75.4172 91.7054 73.5792 89.1424 73.5792C86.5793 73.5792 84.5016 75.4172 84.5016 77.6845C84.5016 79.9518 86.5793 81.7898 89.1424 81.7898Z" data-figma-gradient-fill="{&#34;type&#34;:&#34;GRADIENT_DIAMOND&#34;,&#34;stops&#34;:[{&#34;color&#34;:{&#34;r&#34;:0.26666668057441711,&#34;g&#34;:0.54117649793624878,&#34;b&#34;:1.0,&#34;a&#34;:1.0},&#34;position&#34;:0.0},{&#34;color&#34;:{&#34;r&#34;:0.11764705926179886,&#34;g&#34;:0.22745098173618317,&#34;b&#34;:0.83921569585800171,&#34;a&#34;:1.0},&#34;position&#34;:0.81168484687805176}],&#34;stopsVar&#34;:[{&#34;color&#34;:{&#34;r&#34;:0.26666668057441711,&#34;g&#34;:0.54117649793624878,&#34;b&#34;:1.0,&#34;a&#34;:1.0},&#34;position&#34;:0.0},{&#34;color&#34;:{&#34;r&#34;:0.11764705926179886,&#34;g&#34;:0.22745098173618317,&#34;b&#34;:0.83921569585800171,&#34;a&#34;:1.0},&#34;position&#34;:0.81168484687805176}],&#34;transform&#34;:{&#34;m00&#34;:-1.0922436644023037e-07,&#34;m01&#34;:-14.075311660766602,&#34;m02&#34;:96.180015563964844,&#34;m10&#34;:12.451230049133301,&#34;m11&#34;:-9.6620766498745070e-08,&#34;m12&#34;:68.842285156250},&#34;opacity&#34;:1.0,&#34;blendMode&#34;:&#34;NORMAL&#34;,&#34;visible&#34;:true}"/>
<g clip-path="url(#paint12_diamond_1_403_clip_path)" data-figma-skip-parse="true"><g transform="matrix(0 0.00622562 -0.00703766 0 89.1424 75.0679)"><rect x="0" y="0" width="1857.48" height="1347.45" fill="url(#paint12_diamond_1_403)" opacity="1" shape-rendering="crispEdges"/><rect x="0" y="0" width="1857.48" height="1347.45" transform="scale(1 -1)" fill="url(#paint12_diamond_1_403)" opacity="1" shape-rendering="crispEdges"/><rect x="0" y="0" width="1857.48" height="1347.45" transform="scale(-1 1)" fill="url(#paint12_diamond_1_403)" opacity="1" shape-rendering="crispEdges"/><rect x="0" y="0" width="1857.48" height="1347.45" transform="scale(-1)" fill="url(#paint12_diamond_1_403)" opacity="1" shape-rendering="crispEdges"/></g></g><path d="M93.7831 77.6845H91.3621C91.3621 78.3442 90.6558 79.3687 89.1424 79.3687V81.7898V84.2108C92.755 84.2108 96.2042 81.5593 96.2042 77.6845H93.7831ZM89.1424 81.7898V79.3687C87.6289 79.3687 86.9226 78.3442 86.9226 77.6845H84.5016H82.0805C82.0805 81.5593 85.5297 84.2108 89.1424 84.2108V81.7898ZM84.5016 77.6845H86.9226C86.9226 77.0247 87.6289 76.0002 89.1424 76.0002V73.5792V71.1581C85.5297 71.1581 82.0805 73.8096 82.0805 77.6845H84.5016ZM89.1424 73.5792V76.0002C90.6558 76.0002 91.3621 77.0247 91.3621 77.6845H93.7831H96.2042C96.2042 73.8096 92.755 71.1581 89.1424 71.1581V73.5792Z" data-figma-gradient-fill="{&#34;type&#34;:&#34;GRADIENT_DIAMOND&#34;,&#34;stops&#34;:[{&#34;color&#34;:{&#34;r&#34;:0.26666668057441711,&#34;g&#34;:0.54117649793624878,&#34;b&#34;:1.0,&#34;a&#34;:1.0},&#34;position&#34;:0.0},{&#34;color&#34;:{&#34;r&#34;:0.11764705926179886,&#34;g&#34;:0.22745098173618317,&#34;b&#34;:0.83921569585800171,&#34;a&#34;:1.0},&#34;position&#34;:0.81168484687805176}],&#34;stopsVar&#34;:[{&#34;color&#34;:{&#34;r&#34;:0.26666668057441711,&#34;g&#34;:0.54117649793624878,&#34;b&#34;:1.0,&#34;a&#34;:1.0},&#34;position&#34;:0.0},{&#34;color&#34;:{&#34;r&#34;:0.11764705926179886,&#34;g&#34;:0.22745098173618317,&#34;b&#34;:0.83921569585800171,&#34;a&#34;:1.0},&#34;position&#34;:0.81168484687805176}],&#34;transform&#34;:{&#34;m00&#34;:-1.0922436644023037e-07,&#34;m01&#34;:-14.075311660766602,&#34;m02&#34;:96.180015563964844,&#34;m10&#34;:12.451230049133301,&#34;m11&#34;:-9.6620766498745070e-08,&#34;m12&#34;:68.842285156250},&#34;opacity&#34;:1.0,&#34;blendMode&#34;:&#34;NORMAL&#34;,&#34;visible&#34;:true}"/>
</g>
<defs>
<clipPath id="paint0_diamond_1_403_clip_path"><rect width="128" height="128" rx="64" style="mix-blend-mode:plus-lighter"/></clipPath><filter id="filter0_i_1_403" x="32.579" y="35.5789" width="63.6252" height="58.8422" filterUnits="userSpaceOnUse" color-interpolation-filters="sRGB">
<feFlood flood-opacity="0" result="BackgroundImageFix"/>
<feBlend mode="normal" in="SourceGraphic" in2="BackgroundImageFix" result="shape"/>
<feColorMatrix in="SourceAlpha" type="matrix" values="0 0 0 0 0 0 0 0 0 0 0 0 0 0 0 0 0 0 127 0" result="hardAlpha"/>
<feOffset dy="2"/>
<feGaussianBlur stdDeviation="4"/>
<feComposite in2="hardAlpha" operator="arithmetic" k2="-1" k3="1"/>
<feColorMatrix type="matrix" values="0 0 0 0 1 0 0 0 0 1 0 0 0 0 1 0 0 0 0.5 0"/>
<feBlend mode="normal" in2="shape" result="effect1_innerShadow_1_403"/>
</filter>
<filter id="filter1_i_1_403" x="37.2195" y="41.0093" width="54.3436" height="53.4117" filterUnits="userSpaceOnUse" color-interpolation-filters="sRGB">
<feFlood flood-opacity="0" result="BackgroundImageFix"/>
<feBlend mode="normal" in="SourceGraphic" in2="BackgroundImageFix" result="shape"/>
<feColorMatrix in="SourceAlpha" type="matrix" values="0 0 0 0 0 0 0 0 0 0 0 0 0 0 0 0 0 0 127 0" result="hardAlpha"/>
<feOffset dy="2"/>
<feGaussianBlur stdDeviation="2"/>
<feComposite in2="hardAlpha" operator="arithmetic" k2="-1" k3="1"/>
<feColorMatrix type="matrix" values="0 0 0 0 0 0 0 0 0 0 0 0 0 0 0 0 0 0 0.25 0"/>
<feBlend mode="normal" in2="shape" result="effect1_innerShadow_1_403"/>
</filter>
<clipPath id="paint1_diamond_1_403_clip_path"><path d="M89.1421 73.5788V53.0524L69.8055 43.4309M58.9771 43.4309L39.6405 53.0524V73.5788M44.2813 79.9941L64.3913 90L76.7667 83.8421L84.5013 79.9941"/></clipPath><clipPath id="paint2_diamond_1_403_clip_path"><path d="M86.721 73.5788C86.721 74.916 87.805 75.9999 89.1421 75.9999C90.4792 75.9999 91.5631 74.916 91.5631 73.5788H86.721ZM89.1421 53.0524H91.5631C91.5631 52.1336 91.0431 51.2941 90.2206 50.8848L89.1421 53.0524ZM70.8841 41.2634C69.687 40.6677 68.2336 41.1553 67.638 42.3524C67.0423 43.5495 67.5299 45.0028 68.727 45.5985L70.8841 41.2634ZM60.0556 45.5985C61.2527 45.0028 61.7403 43.5495 61.1446 42.3524C60.549 41.1553 59.0956 40.6677 57.8985 41.2634L60.0556 45.5985ZM39.6405 53.0524L38.562 50.8848C37.7395 51.2941 37.2195 52.1336 37.2195 53.0524H39.6405ZM37.2195 73.5788C37.2195 74.916 38.3034 75.9999 39.6405 75.9999C40.9776 75.9999 42.0616 74.916 42.0616 73.5788H37.2195ZM45.3598 77.8265C44.1627 77.2309 42.7093 77.7184 42.1137 78.9156C41.5181 80.1127 42.0057 81.566 43.2028 82.1616L45.3598 77.8265ZM64.3913 90L63.3128 92.1676C63.9921 92.5056 64.7906 92.5056 65.4699 92.1676L64.3913 90ZM76.7667 83.8421L75.6883 81.6745L75.6881 81.6745L76.7667 83.8421ZM85.5797 82.1617C86.7769 81.5661 87.2645 80.1128 86.6689 78.9157C86.0733 77.7185 84.6201 77.2309 83.4229 77.8264L85.5797 82.1617ZM89.1421 73.5788H91.5631V53.0524H89.1421H86.721V73.5788H89.1421ZM89.1421 53.0524L90.2206 50.8848L70.8841 41.2634L69.8055 43.4309L68.727 45.5985L88.0636 55.2199L89.1421 53.0524ZM58.9771 43.4309L57.8985 41.2634L38.562 50.8848L39.6405 53.0524L40.719 55.2199L60.0556 45.5985L58.9771 43.4309ZM39.6405 53.0524H37.2195V73.5788H39.6405H42.0616V53.0524H39.6405ZM44.2813 79.9941L43.2028 82.1616L63.3128 92.1676L64.3913 90L65.4698 87.8325L45.3598 77.8265L44.2813 79.9941ZM64.3913 90L65.4699 92.1676L77.8452 86.0096L76.7667 83.8421L75.6881 81.6745L63.3127 87.8325L64.3913 90ZM76.7667 83.8421L77.8451 86.0097L85.5797 82.1617L84.5013 79.9941L83.4229 77.8264L75.6883 81.6745L76.7667 83.8421Z"/></clipPath><clipPath id="paint3_diamond_1_403_clip_path"><path d="M59.7509 58.1844L55.1101 60.5791V70.1582L59.7509 72.5529L64.3917 74.9477L69.0324 72.5529L73.6732 70.1582V60.5791L69.0324 58.1844L64.3917 55.7896L59.7509 58.1844Z"/></clipPath><clipPath id="paint4_diamond_1_403_clip_path"><path d="M55.1101 60.5791L53.9999 58.4276C53.1948 58.8431 52.6891 59.6732 52.6891 60.5791H55.1101ZM55.1101 70.1582H52.6891C52.6891 71.0641 53.1948 71.8942 53.9999 72.3096L55.1101 70.1582ZM64.3917 74.9477L63.2814 77.0992C63.9779 77.4586 64.8054 77.4586 65.5019 77.0992L64.3917 74.9477ZM73.6732 70.1582L74.7834 72.3096C75.5885 71.8942 76.0943 71.0641 76.0943 70.1582H73.6732ZM73.6732 60.5791H76.0943C76.0943 59.6732 75.5885 58.8431 74.7834 58.4276L73.6732 60.5791ZM64.3917 55.7896L65.5019 53.6381C64.8054 53.2787 63.9779 53.2787 63.2814 53.6381L64.3917 55.7896ZM59.7509 58.1844L58.6407 56.0329L53.9999 58.4276L55.1101 60.5791L56.2203 62.7306L60.8611 60.3359L59.7509 58.1844ZM55.1101 60.5791H52.6891V70.1582H55.1101H57.5312V60.5791H55.1101ZM55.1101 70.1582L53.9999 72.3096L58.6407 74.7044L59.7509 72.5529L60.8611 70.4014L56.2203 68.0067L55.1101 70.1582ZM59.7509 72.5529L58.6407 74.7044L63.2814 77.0992L64.3917 74.9477L65.5019 72.7962L60.8611 70.4014L59.7509 72.5529ZM64.3917 74.9477L65.5019 77.0992L70.1427 74.7044L69.0324 72.5529L67.9222 70.4014L63.2814 72.7962L64.3917 74.9477ZM69.0324 72.5529L70.1427 74.7044L74.7834 72.3096L73.6732 70.1582L72.563 68.0067L67.9222 70.4014L69.0324 72.5529ZM73.6732 70.1582H76.0943V60.5791H73.6732H71.2521V70.1582H73.6732ZM73.6732 60.5791L74.7834 58.4276L70.1427 56.0329L69.0324 58.1844L67.9222 60.3359L72.563 62.7306L73.6732 60.5791ZM69.0324 58.1844L70.1427 56.0329L65.5019 53.6381L64.3917 55.7896L63.2814 57.9411L67.9222 60.3359L69.0324 58.1844ZM64.3917 55.7896L63.2814 53.6381L58.6407 56.0329L59.7509 58.1844L60.8611 60.3359L65.5019 57.9411L64.3917 55.7896Z"/></clipPath><clipPath id="paint5_diamond_1_403_clip_path"><path d="M64.3915 55.7897V46.2106ZM73.6731 69.474L84.5015 74.9477ZM55.11 69.474L44.2815 74.9477Z"/></clipPath><clipPath id="paint6_diamond_1_403_clip_path"><path d="M61.9705 55.7897C61.9705 57.1268 63.0544 58.2107 64.3915 58.2107C65.7286 58.2107 66.8126 57.1268 66.8126 55.7897H61.9705ZM66.8126 46.2106C66.8126 44.8735 65.7286 43.7896 64.3915 43.7896C63.0544 43.7896 61.9705 44.8735 61.9705 46.2106H66.8126ZM74.7653 67.3133C73.572 66.7101 72.1156 67.1885 71.5124 68.3818C70.9092 69.5751 71.3875 71.0315 72.5808 71.6347L74.7653 67.3133ZM83.4093 77.1084C84.6026 77.7116 86.059 77.2332 86.6622 76.0399C87.2654 74.8466 86.7871 73.3902 85.5937 72.787L83.4093 77.1084ZM56.2022 71.6347C57.3955 71.0315 57.8739 69.5751 57.2707 68.3818C56.6674 67.1885 55.2111 66.7101 54.0178 67.3133L56.2022 71.6347ZM43.1893 72.787C41.996 73.3902 41.5176 74.8466 42.1208 76.0399C42.724 77.2332 44.1804 77.7116 45.3737 77.1084L43.1893 72.787ZM64.3915 55.7897H66.8126V46.2106H64.3915H61.9705V55.7897H64.3915ZM73.6731 69.474L72.5808 71.6347L83.4093 77.1084L84.5015 74.9477L85.5937 72.787L74.7653 67.3133L73.6731 69.474ZM55.11 69.474L54.0178 67.3133L43.1893 72.787L44.2815 74.9477L45.3737 77.1084L56.2022 71.6347L55.11 69.474Z"/></clipPath><clipPath id="paint7_diamond_1_403_clip_path"><path d="M64.3919 46.2106C66.9549 46.2106 69.0326 44.3726 69.0326 42.1053C69.0326 39.838 66.9549 38 64.3919 38C61.8288 38 59.7511 39.838 59.7511 42.1053C59.7511 44.3726 61.8288 46.2106 64.3919 46.2106Z"/></clipPath><clipPath id="paint8_diamond_1_403_clip_path"><path d="M69.0326 42.1053H66.6116C66.6116 42.765 65.9053 43.7895 64.3919 43.7895V46.2106V48.6316C68.0045 48.6316 71.4537 45.9801 71.4537 42.1053H69.0326ZM64.3919 46.2106V43.7895C62.8784 43.7895 62.1722 42.765 62.1722 42.1053H59.7511H57.33C57.33 45.9801 60.7792 48.6316 64.3919 48.6316V46.2106ZM59.7511 42.1053H62.1722C62.1722 41.4456 62.8784 40.4211 64.3919 40.4211V38V35.5789C60.7792 35.5789 57.33 38.2304 57.33 42.1053H59.7511ZM64.3919 38V40.4211C65.9053 40.4211 66.6116 41.4456 66.6116 42.1053H69.0326H71.4537C71.4537 38.2304 68.0045 35.5789 64.3919 35.5789V38Z"/></clipPath><clipPath id="paint9_diamond_1_403_clip_path"><path d="M39.6408 81.7898C42.2038 81.7898 44.2815 79.9518 44.2815 77.6845C44.2815 75.4172 42.2038 73.5792 39.6408 73.5792C37.0777 73.5792 35 75.4172 35 77.6845C35 79.9518 37.0777 81.7898 39.6408 81.7898Z"/></clipPath><clipPath id="paint10_diamond_1_403_clip_path"><path d="M44.2815 77.6845H41.8605C41.8605 78.3442 41.1542 79.3687 39.6408 79.3687V81.7898V84.2108C43.2534 84.2108 46.7026 81.5593 46.7026 77.6845H44.2815ZM39.6408 81.7898V79.3687C38.1273 79.3687 37.4211 78.3442 37.4211 77.6845H35H32.5789C32.5789 81.5593 36.0281 84.2108 39.6408 84.2108V81.7898ZM35 77.6845H37.4211C37.4211 77.0247 38.1273 76.0002 39.6408 76.0002V73.5792V71.1581C36.0281 71.1581 32.5789 73.8096 32.5789 77.6845H35ZM39.6408 73.5792V76.0002C41.1542 76.0002 41.8605 77.0247 41.8605 77.6845H44.2815H46.7026C46.7026 73.8096 43.2534 71.1581 39.6408 71.1581V73.5792Z"/></clipPath><clipPath id="paint11_diamond_1_403_clip_path"><path d="M89.1424 81.7898C91.7054 81.7898 93.7831 79.9518 93.7831 77.6845C93.7831 75.4172 91.7054 73.5792 89.1424 73.5792C86.5793 73.5792 84.5016 75.4172 84.5016 77.6845C84.5016 79.9518 86.5793 81.7898 89.1424 81.7898Z"/></clipPath><clipPath id="paint12_diamond_1_403_clip_path"><path d="M93.7831 77.6845H91.3621C91.3621 78.3442 90.6558 79.3687 89.1424 79.3687V81.7898V84.2108C92.755 84.2108 96.2042 81.5593 96.2042 77.6845H93.7831ZM89.1424 81.7898V79.3687C87.6289 79.3687 86.9226 78.3442 86.9226 77.6845H84.5016H82.0805C82.0805 81.5593 85.5297 84.2108 89.1424 84.2108V81.7898ZM84.5016 77.6845H86.9226C86.9226 77.0247 87.6289 76.0002 89.1424 76.0002V73.5792V71.1581C85.5297 71.1581 82.0805 73.8096 82.0805 77.6845H84.5016ZM89.1424 73.5792V76.0002C90.6558 76.0002 91.3621 77.0247 91.3621 77.6845H93.7831H96.2042C96.2042 73.8096 92.755 71.1581 89.1424 71.1581V73.5792Z"/></clipPath><linearGradient id="paint0_diamond_1_403" x1="0" y1="0" x2="500" y2="500" gradientUnits="userSpaceOnUse">
<stop stop-color="#172F83" stop-opacity="0.3"/>
<stop offset="1" stop-color="#B9AFFF"/>
</linearGradient>
<linearGradient id="paint1_diamond_1_403" x1="0" y1="0" x2="500" y2="500" gradientUnits="userSpaceOnUse">
<stop stop-color="#448AFF"/>
<stop offset="0.811685" stop-color="#1E3AD6"/>
</linearGradient>
<linearGradient id="paint2_diamond_1_403" x1="0" y1="0" x2="500" y2="500" gradientUnits="userSpaceOnUse">
<stop stop-color="#448AFF"/>
<stop offset="0.811685" stop-color="#1E3AD6"/>
</linearGradient>
<linearGradient id="paint3_diamond_1_403" x1="0" y1="0" x2="500" y2="500" gradientUnits="userSpaceOnUse">
<stop stop-color="#448AFF"/>
<stop offset="0.811685" stop-color="#1E3AD6"/>
</linearGradient>
<linearGradient id="paint4_diamond_1_403" x1="0" y1="0" x2="500" y2="500" gradientUnits="userSpaceOnUse">
<stop stop-color="#448AFF"/>
<stop offset="0.811685" stop-color="#1E3AD6"/>
</linearGradient>
<linearGradient id="paint5_diamond_1_403" x1="0" y1="0" x2="500" y2="500" gradientUnits="userSpaceOnUse">
<stop stop-color="#448AFF"/>
<stop offset="0.811685" stop-color="#1E3AD6"/>
</linearGradient>
<linearGradient id="paint6_diamond_1_403" x1="0" y1="0" x2="500" y2="500" gradientUnits="userSpaceOnUse">
<stop stop-color="#448AFF"/>
<stop offset="0.811685" stop-color="#1E3AD6"/>
</linearGradient>
<linearGradient id="paint7_diamond_1_403" x1="0" y1="0" x2="500" y2="500" gradientUnits="userSpaceOnUse">
<stop stop-color="#448AFF"/>
<stop offset="0.811685" stop-color="#1E3AD6"/>
</linearGradient>
<linearGradient id="paint8_diamond_1_403" x1="0" y1="0" x2="500" y2="500" gradientUnits="userSpaceOnUse">
<stop stop-color="#448AFF"/>
<stop offset="0.811685" stop-color="#1E3AD6"/>
</linearGradient>
<linearGradient id="paint9_diamond_1_403" x1="0" y1="0" x2="500" y2="500" gradientUnits="userSpaceOnUse">
<stop stop-color="#448AFF"/>
<stop offset="0.811685" stop-color="#1E3AD6"/>
</linearGradient>
<linearGradient id="paint10_diamond_1_403" x1="0" y1="0" x2="500" y2="500" gradientUnits="userSpaceOnUse">
<stop stop-color="#448AFF"/>
<stop offset="0.811685" stop-color="#1E3AD6"/>
</linearGradient>
<linearGradient id="paint11_diamond_1_403" x1="0" y1="0" x2="500" y2="500" gradientUnits="userSpaceOnUse">
<stop stop-color="#448AFF"/>
<stop offset="0.811685" stop-color="#1E3AD6"/>
</linearGradient>
<linearGradient id="paint12_diamond_1_403" x1="0" y1="0" x2="500" y2="500" gradientUnits="userSpaceOnUse">
<stop stop-color="#448AFF"/>
<stop offset="0.811685" stop-color="#1E3AD6"/>
</linearGradient>
</defs>
</svg>
