<svg width="944" height="382" viewBox="0 0 944 382" fill="none" xmlns="http://www.w3.org/2000/svg">
<path fill-rule="evenodd" clip-rule="evenodd" d="M649.478 14.6404C652.838 16.3204 655.498 18.5137 657.458 21.2204L667.258 11.7003C664.178 8.24701 660.118 5.49368 655.078 3.44035C650.038 1.38702 644.625 0.360352 638.838 0.360352C634.732 0.360352 630.625 0.92035 626.518 2.04035C622.505 3.06702 618.865 4.74702 615.598 7.08035C612.425 9.41368 609.812 12.3537 607.758 15.9004C605.798 19.447 604.818 23.6937 604.818 28.6403C604.818 33.2137 605.565 37.0404 607.058 40.1203C608.552 43.2004 610.512 45.8137 612.938 47.9604C615.365 50.0137 618.118 51.7403 621.198 53.1404C624.278 54.447 627.405 55.567 630.578 56.5004C633.752 57.527 636.738 58.5537 639.538 59.5804C642.432 60.5137 644.952 61.6804 647.098 63.0803C649.245 64.4803 650.925 66.207 652.138 68.2604C653.445 70.2204 654.098 72.6937 654.098 75.6804C654.098 78.667 653.492 81.2337 652.278 83.3804C651.065 85.4337 649.478 87.1604 647.518 88.5604C645.652 89.9604 643.552 90.987 641.218 91.6404C638.885 92.2937 636.552 92.6204 634.218 92.6204C629.645 92.6204 625.398 91.547 621.478 89.4004C617.558 87.2537 614.432 84.4537 612.098 81.0004L601.318 90.1003C605.145 94.8604 609.952 98.4537 615.738 100.88C621.618 103.307 627.685 104.52 633.938 104.52C638.325 104.52 642.572 103.914 646.678 102.7C650.878 101.487 654.565 99.667 657.738 97.2404C660.912 94.7204 663.432 91.5937 665.298 87.8604C667.258 84.0337 668.238 79.5537 668.238 74.4203C668.238 69.4737 667.352 65.4137 665.578 62.2404C663.805 58.9737 661.518 56.267 658.718 54.1204C655.918 51.9737 652.792 50.247 649.338 48.9404C645.885 47.6337 642.478 46.467 639.118 45.4403L631.138 42.7804C628.712 41.847 626.565 40.7737 624.698 39.5604C622.925 38.2537 621.478 36.7137 620.358 34.9403C619.332 33.0737 618.818 30.787 618.818 28.0804C618.818 25.2803 619.378 22.9003 620.498 20.9403C621.712 18.887 623.252 17.207 625.118 15.9004C626.985 14.5003 629.038 13.5203 631.278 12.9603C633.612 12.307 635.898 11.9804 638.138 11.9804C642.338 11.9804 646.118 12.867 649.478 14.6404ZM41.2799 2.88035H11.0399V102H24.8999V58.4604H40.5799C45.7132 58.4604 50.4732 57.947 54.8599 56.9203C59.3399 55.8004 63.1666 54.1203 66.3399 51.8804C69.6066 49.6404 72.1266 46.747 73.8999 43.2004C75.7666 39.6537 76.6999 35.407 76.6999 30.4603C76.6999 25.607 75.8599 21.4537 74.1799 18.0003C72.4999 14.547 70.1199 11.7003 67.0399 9.46035C63.9599 7.22035 60.2266 5.58701 55.8399 4.56035C51.4532 3.44035 46.5999 2.88035 41.2799 2.88035ZM39.5999 46.7004H24.8999V14.6404H39.8799C43.1466 14.6404 46.1799 14.9204 48.9799 15.4803C51.7799 15.947 54.1599 16.8337 56.1199 18.1403C58.1732 19.3537 59.7599 20.987 60.8799 23.0404C62.0932 25.0003 62.6999 27.4737 62.6999 30.4603C62.6999 33.447 62.1399 35.967 61.0199 38.0204C59.8999 40.0737 58.3132 41.7537 56.2599 43.0603C54.2066 44.2737 51.7332 45.207 48.8399 45.8604C46.0399 46.4204 42.9599 46.7004 39.5999 46.7004ZM71.8218 102H87.2218L97.1618 77.6404H144.202L154.282 102H169.962L127.402 2.88035H114.802L71.8218 102ZM139.162 65.4604H102.062L120.682 18.9803L139.162 65.4604ZM193.753 102H179.893V2.88035H211.673C216.433 2.88035 220.96 3.39368 225.253 4.42035C229.546 5.35368 233.28 6.89368 236.453 9.04035C239.72 11.187 242.286 14.0337 244.153 17.5803C246.02 21.0337 246.953 25.2803 246.953 30.3204C246.953 37.6003 244.713 43.4804 240.233 47.9604C235.753 52.4404 229.966 55.287 222.873 56.5004L250.593 102H233.793L208.593 57.9003H193.753V102ZM193.753 46.2803H209.713C212.98 46.2803 216.013 46.0003 218.813 45.4403C221.613 44.8803 224.04 43.9937 226.093 42.7804C228.24 41.4737 229.92 39.8404 231.133 37.8803C232.346 35.827 232.953 33.307 232.953 30.3204C232.953 27.3337 232.346 24.8603 231.133 22.9004C229.92 20.847 228.286 19.2137 226.233 18.0003C224.273 16.787 221.94 15.947 219.233 15.4803C216.526 14.9204 213.68 14.6404 210.693 14.6404H193.753V46.2803ZM282.309 102H296.169V15.0603H327.949V2.88035H250.529V15.0603H282.309V102ZM408.216 82.1204H408.496V2.88035H422.356V102H404.856L352.496 21.0804H352.216V102H338.356V2.88035H356.416L408.216 82.1204ZM509.36 89.6804H457.56V56.6404H504.32V44.7404H457.56V15.0603H507.26V2.88035H443.7V102H509.36V89.6804ZM538.842 102H524.982V2.88035H556.762C561.522 2.88035 566.049 3.39368 570.342 4.42035C574.635 5.35368 578.369 6.89368 581.542 9.04035C584.809 11.187 587.375 14.0337 589.242 17.5803C591.109 21.0337 592.042 25.2803 592.042 30.3204C592.042 37.6003 589.802 43.4804 585.322 47.9604C580.842 52.4404 575.055 55.287 567.962 56.5004L595.682 102H578.882L553.682 57.9003H538.842V102ZM538.842 46.2803H554.802C558.069 46.2803 561.102 46.0003 563.902 45.4403C566.702 44.8803 569.129 43.9937 571.182 42.7804C573.329 41.4737 575.009 39.8404 576.222 37.8803C577.435 35.827 578.042 33.307 578.042 30.3204C578.042 27.3337 577.435 24.8603 576.222 22.9004C575.009 20.847 573.375 19.2137 571.322 18.0003C569.362 16.787 567.029 15.947 564.322 15.4803C561.615 14.9204 558.769 14.6404 555.782 14.6404H538.842V46.2803ZM685.085 2.88035H698.945V44.3204H749.065V2.88035H763.065V102H749.065V56.6404H698.945V102H685.085V2.88035ZM784.277 102H798.137V2.88035H784.277V102ZM819.485 2.88035H849.725C855.045 2.88035 859.899 3.44035 864.285 4.56035C868.672 5.58701 872.405 7.22035 875.485 9.46035C878.565 11.7003 880.945 14.547 882.625 18.0003C884.305 21.4537 885.145 25.607 885.145 30.4603C885.145 35.407 884.212 39.6537 882.345 43.2004C880.572 46.747 878.052 49.6404 874.785 51.8804C871.612 54.1203 867.785 55.8004 863.305 56.9203C858.919 57.947 854.159 58.4604 849.025 58.4604H833.345V102H819.485V2.88035ZM833.345 46.7004H848.045C851.405 46.7004 854.485 46.4204 857.285 45.8604C860.179 45.207 862.652 44.2737 864.705 43.0603C866.759 41.7537 868.345 40.0737 869.465 38.0204C870.585 35.967 871.145 33.447 871.145 30.4603C871.145 27.4737 870.539 25.0003 869.325 23.0404C868.205 20.987 866.619 19.3537 864.565 18.1403C862.605 16.8337 860.225 15.947 857.425 15.4803C854.625 14.9204 851.592 14.6404 848.325 14.6404H833.345V46.7004ZM37.4999 221.84H37.2199L15.3799 142.88H0.399902L29.5199 242H43.9399L68.0199 162.34H68.2999L92.3799 242H106.8L135.92 142.88H121.22L99.3799 221.84H99.0999L75.9999 142.88H60.7399L37.4999 221.84ZM160.459 242H146.599V142.88H160.459V242ZM202.667 242H216.527V155.06H248.307V142.88H170.887V155.06H202.667V242ZM258.714 142.88H272.574V184.32H322.694V142.88H336.694V242H322.694V196.64H272.574V242H258.714V142.88ZM45.1999 282.88H11.0399V382H43.6599C48.7932 382 53.5999 381.44 58.0799 380.32C62.6532 379.107 66.6199 377.38 69.9799 375.14C73.3399 372.807 75.9999 369.867 77.9599 366.32C79.9199 362.774 80.8999 358.62 80.8999 353.86C80.8999 350.407 80.3399 347.28 79.2199 344.48C78.1932 341.68 76.6999 339.254 74.7399 337.2C72.7799 335.147 70.4466 333.514 67.7399 332.3C65.0332 330.994 62.0932 330.154 58.9199 329.78V329.5C64.1466 328.1 68.3466 325.534 71.5199 321.8C74.6932 318.067 76.2799 313.447 76.2799 307.94C76.2799 303.18 75.3466 299.214 73.4799 296.04C71.7066 292.867 69.3266 290.3 66.3399 288.34C63.4466 286.38 60.1332 284.98 56.3999 284.14C52.6666 283.3 48.9332 282.88 45.1999 282.88ZM42.9599 324.74H24.8999V294.5H40.7199C47.3466 294.5 52.6199 295.667 56.5399 298C60.4599 300.24 62.4199 304.02 62.4199 309.34C62.4199 312.047 61.9066 314.38 60.8799 316.34C59.8532 318.207 58.4532 319.794 56.6799 321.1C54.9066 322.314 52.8066 323.247 50.3799 323.9C48.0466 324.46 45.5732 324.74 42.9599 324.74ZM42.2599 370.24H24.8999V336.5H43.5199C51.0799 336.5 56.8666 337.807 60.8799 340.42C64.8932 343.034 66.8999 347.28 66.8999 353.16C66.8999 356.52 66.1532 359.32 64.6599 361.56C63.2599 363.707 61.3466 365.434 58.9199 366.74C56.5866 368.047 53.9266 368.98 50.9399 369.54C48.0466 370.007 45.1532 370.24 42.2599 370.24ZM136.704 382H122.704V339.16L85.6041 282.88H102.684L130.124 327.68L157.704 282.88H173.804L136.704 339.16V382ZM497.824 145.93H545V240.059H497.824V145.93ZM488.733 214.232V209.027C488.733 193.133 477.81 186.563 443.62 180.259C433.401 178.339 429.517 176.43 429.517 170.669V167.107C429.517 164.365 432.332 163 434.808 163C438.34 163 440.1 164.92 440.1 167.107V178.339H486.985V171.491C486.985 152.856 476.062 143 432.345 143C400.619 142.989 377 151.757 377 171.213V174.776C377 191.768 386.515 199.437 422.125 206.285C422.953 206.447 423.741 206.598 424.491 206.741C433.95 208.553 437.284 209.192 437.284 214.776V218.339C437.284 221.901 436.228 223.266 431.993 223.266C427.065 223.266 426.701 220.802 426.701 218.061V208.749H377V213.133C377 236.152 393.567 243 433.401 243C471.122 243 488.745 236.696 488.745 214.232H488.733ZM641.552 146.011H626.022V239.989H641.552V146.011ZM676.329 146.011H692.419L692.443 146C696.527 146 700.488 147.552 703.304 150.258C706.022 152.885 707.522 156.245 707.522 159.726V173.442H691.992V161.722C691.992 160.225 690.432 158.806 688.786 158.806H680.01C678.364 158.806 676.804 160.225 676.804 161.722V224.278C676.804 225.775 678.364 227.194 680.01 227.194H688.786C690.432 227.194 691.992 225.775 691.992 224.278V212.558H707.522V226.274C707.522 229.988 705.815 233.591 702.841 236.153C699.952 238.625 696.259 239.989 692.431 239.989H676.341C672.501 239.989 668.856 238.67 666.077 236.286C663.005 233.647 661.25 229.999 661.25 226.274V159.737C661.25 156.256 662.749 152.885 665.468 150.269C668.283 147.563 672.245 146.011 676.329 146.011ZM581.64 158.806H567.012H567V146.011H611.797V158.806H597.169V239.989H581.64V158.806ZM944 159.726V173.442V173.453H928.47V161.733C928.47 160.236 926.91 158.817 925.265 158.817H916.488C914.842 158.817 913.282 160.236 913.282 161.733V174.373C913.282 178.276 915.927 180.194 916.744 180.682L929.019 187.733C936.601 192.246 944 197.446 944 206.981V226.274C944 229.955 942.488 233.27 939.624 235.875C936.674 238.57 932.968 239.989 928.921 239.989H912.831C908.735 239.989 905.176 238.647 902.275 236.008C899.325 233.458 897.753 230.088 897.753 226.263V212.547H913.282V224.267C913.282 225.841 914.745 227.183 916.488 227.183H925.265C926.91 227.183 928.47 225.764 928.47 224.267V208.833C928.47 205.961 926.679 203.622 925.021 202.657L912.429 195.062C905.542 190.893 897.74 186.159 897.74 176.491V159.726C897.74 155.901 899.313 152.531 902.275 149.98C905.176 147.353 908.723 146.011 912.831 146.011H928.921C932.968 146.011 936.662 147.43 939.624 150.125C942.488 152.719 944 156.045 944 159.726ZM739.068 188.288L760.571 146.011H778.295L754.184 186.78L778.209 240H760.4L743.81 199.985L739.068 208.013V239.989H723.539V146.011H739.068V188.288ZM857.015 158.806H842.388H842.375V146.011H887.172V158.806H872.545V239.989H857.015V158.806ZM830.003 239.989H792.52V146.011H830.003V158.806H808.062V185.272H825.907V198.067H808.062V227.194H830.003V239.989ZM369.717 322.512C369.717 323.511 368.544 324.223 367.539 324.223C366.533 324.223 365.528 323.511 365.528 322.512V301.685C365.528 300.829 366.533 300.116 367.539 300.116C368.546 300.116 369.717 300.829 369.717 301.685V322.512ZM296.195 319.088V316.379C296.195 308.105 291 304.682 274.745 301.4C269.886 300.401 268.042 299.404 268.042 296.408V294.553C268.042 293.126 269.383 292.414 270.555 292.414C272.232 292.414 273.069 293.413 273.069 294.553V300.402H295.357V296.836C295.357 287.135 290.162 282 269.382 282C254.3 282 243.072 286.565 243.072 296.693V298.547C243.072 307.392 247.597 311.386 264.522 314.952C264.909 315.034 265.278 315.111 265.628 315.185C270.142 316.13 271.729 316.463 271.729 319.375V321.229C271.729 323.083 271.225 323.797 269.214 323.797C266.869 323.797 266.702 322.514 266.702 321.087V316.238H243.073V318.52C243.073 330.504 250.949 334.068 269.886 334.068C287.816 334.068 296.195 330.787 296.195 319.088ZM452.12 332.211V320.513H448.1C445.752 320.513 445.25 319.944 445.25 318.66V304.966H451.953V292.127H445.25V286.419H424.47V321.37C424.47 329.074 429.667 332.211 440.391 332.211H452.12ZM390.329 319.372V304.823C390.329 294.694 380.44 291.414 367.538 291.414C354.3 291.414 344.581 294.694 344.581 304.823V319.372C344.581 329.36 354.301 332.782 367.538 332.782C380.442 332.783 390.329 329.36 390.329 319.372ZM497.345 319.802V318.09C497.345 312.955 494.664 310.243 479.413 306.679L479.337 306.66C475.202 305.674 473.378 305.24 473.378 303.398V301.543C473.378 300.544 474.387 300.116 475.224 300.116C476.397 300.116 477.234 300.544 477.234 301.543V305.68H496.338V302.541C496.338 294.125 487.625 291.414 475.056 291.414C463.158 291.414 452.767 294.124 452.767 302.683V304.253C452.767 309.245 454.611 313.524 471.201 317.52C475.224 318.518 477.234 319.089 477.234 320.943V322.94C477.234 323.939 476.397 324.225 475.224 324.225C474.386 324.225 473.378 323.795 473.378 322.798V318.803H452.768V320.943C452.768 329.217 458.466 332.927 475.224 332.927C488.127 332.926 497.345 330.501 497.345 319.802ZM343.094 320.23V303.967C343.094 293.84 334.883 292.127 326.001 292.127H297.681V339.06H318.46V332.211H324.995C333.71 332.211 343.094 330.214 343.094 320.23ZM200.958 381.141V324.366H178V381.142L200.958 381.141ZM561.001 381.141V330.358H540.222V341.057H533.016C525.307 341.057 515.755 343.482 515.755 352.755V369.301C515.755 378.573 524.302 381.141 532.01 381.141H561.001ZM247.62 381.141V332.497H226.673V381.141H247.62ZM224.229 381.141V332.497H203.282V381.141H224.229ZM468.543 381.141V369.444H464.857C462.679 369.444 462.176 368.875 462.176 367.733V353.61H468.543V341.057H462.176V335.35H441.396V370.158C441.396 378.146 446.591 381.141 457.316 381.141H468.543ZM368.879 381.141V369.444H365.025C363.013 369.444 362.344 368.875 362.344 367.733V353.61H368.879V341.057H362.344V335.35H341.564V370.158C341.564 378.146 346.759 381.141 357.484 381.141H368.879ZM514.437 368.303V365.451H493.657V371.441C493.657 372.44 492.819 372.868 491.646 372.868C490.641 372.868 489.635 372.44 489.635 371.441V363.737H514.436V353.895C514.436 343.909 504.716 340.343 491.645 340.343C478.574 340.343 469.021 343.624 469.021 353.752V368.017C469.021 378.288 478.574 381.712 491.645 381.712C504.716 381.712 514.437 378.575 514.437 368.303ZM295.189 381.141V341.057H274.41V372.156H272.232C270.891 372.156 270.555 371.586 270.555 370.444V341.058H249.776V369.302C249.776 377.15 255.976 381.142 266.031 381.142H295.189V381.141ZM340.748 368.875V367.163C340.748 362.028 338.067 359.317 322.816 355.752L322.739 355.734C318.604 354.748 316.783 354.314 316.783 352.47V350.617C316.783 349.618 317.789 349.189 318.626 349.189C319.801 349.189 320.638 349.618 320.638 350.617V354.753H340.412V351.473C340.412 343.057 331.193 340.487 318.625 340.487C306.727 340.487 296.17 343.057 296.17 351.615V353.325C296.17 358.318 297.846 362.598 314.436 366.592C318.457 367.591 320.47 368.162 320.47 370.016V372.014C320.47 373.012 319.633 373.297 318.459 373.297C317.621 373.297 316.616 372.869 316.616 371.871V367.877H296.003V370.016C296.003 378.29 301.702 382 318.459 382C331.364 381.999 340.748 379.573 340.748 368.875ZM322.482 322.084C322.482 322.94 321.476 323.795 320.138 323.795H318.46V300.543H320.138C321.478 300.543 322.482 301.398 322.482 302.254V322.084ZM493.825 354.894H489.636V350.186C489.636 349.188 490.642 348.475 491.648 348.475C492.989 348.475 493.826 349.188 493.826 350.186L493.825 354.894ZM540.222 372.726H538.712C537.035 372.726 536.534 372.156 536.534 371.156V351.042C536.534 350.33 537.036 349.472 538.712 349.472H540.222V372.726ZM423.151 291.556C420.302 291.556 414.94 292.555 412.762 296.549V292.127H391.982V332.211H412.762V310.956C412.762 307.676 415.108 305.678 419.13 305.678H423.151L423.151 291.556ZM439.741 381.141V353.324C439.741 345.337 436.222 340.342 418.963 340.342H405.388C398.015 340.342 393.491 343.195 391.143 347.76V341.056H370.364V381.14H391.311V359.315C391.311 356.034 393.824 354.037 397.678 354.037H414.939V348.331H416.783C418.126 348.331 418.961 349.043 418.961 350.184V355.462H410.917C403.209 355.462 393.321 357.887 393.321 367.16V369.3C393.321 378.572 402.204 381.14 409.911 381.14H439.741V381.141H439.741ZM418.963 372.441H417.622C415.276 372.441 414.94 371.872 414.94 370.731V365.881C414.94 364.453 415.778 363.598 417.789 363.598H418.963V372.441ZM568.7 332.724C568.7 331.366 567.602 330.329 566.289 330.329C564.971 330.329 563.866 331.366 563.866 332.724C563.866 334.108 564.971 335.145 566.289 335.145C567.601 335.145 568.7 334.108 568.7 332.724ZM568.263 332.724C568.263 333.902 567.402 334.792 566.289 334.792C565.164 334.792 564.303 333.902 564.305 332.724C564.305 331.571 565.165 330.682 566.289 330.682C567.402 330.682 568.263 331.571 568.263 332.724ZM566.439 331.326H565.355V334.139H565.792V332.929H566.255L567.018 334.139H567.487L566.684 332.896C567.101 332.852 567.422 332.64 567.422 332.131C567.422 331.59 567.107 331.326 566.439 331.326ZM566.246 332.575H565.788V331.681H566.367C566.664 331.681 566.983 331.739 566.983 332.112C566.983 332.556 566.63 332.575 566.246 332.575Z" fill="url(#paint0_linear_22139_199263)"/>
<defs>
<linearGradient id="paint0_linear_22139_199263" x1="472.2" y1="0.360352" x2="472.2" y2="382" gradientUnits="userSpaceOnUse">
<stop stop-color="#F9F5ED"/>
<stop offset="0.510417" stop-color="#44C6FA"/>
<stop offset="1" stop-color="#036DA8"/>
</linearGradient>
</defs>
</svg>
